<svg version="1.1" id="Layer_1" xmlns="http://www.w3.org/2000/svg" xmlns:xlink="http://www.w3.org/1999/xlink" x="0px" y="0px" viewBox="0 0 500 500" style="width: 151px;" xml:space="preserve" data-imageid="businessman-66" imageName="Businessman" class="illustrations_image">
<style type="text/css">
	.st0_businessman-66{fill:#D1D3D4;}
	.st1_businessman-66{fill:none;}
	.st2_businessman-66{fill:#FFFFFF;}
	.st3_businessman-66{fill:#231F20;}
	.st4_businessman-66{fill:#68E1FD;}
</style>
<g id="background_businessman-66">
	<g id="background-2_businessman-66">
		<path class="st0_businessman-66" d="M54.8,383.2c-0.4,0-0.8-0.3-0.8-0.8V140.7c0-0.4,0.3-0.8,0.8-0.8s0.8,0.3,0.8,0.8v241.7&#xA;&#9;&#9;&#9;C55.5,382.8,55.2,383.2,54.8,383.2z"/>
		<path class="st0_businessman-66" d="M185.6,383.2c-0.4,0-0.7-0.3-0.8-0.8V140.7c0-0.4,0.3-0.8,0.8-0.8s0.8,0.3,0.8,0.8v241.7&#xA;&#9;&#9;&#9;C186.4,382.8,186.1,383.2,185.6,383.2z"/>
		<path class="st0_businessman-66" d="M316.5,383.2c-0.4,0-0.7-0.3-0.8-0.8V140.7c0-0.4,0.3-0.8,0.8-0.8s0.8,0.3,0.8,0.8v241.7&#xA;&#9;&#9;&#9;C317.3,382.8,316.9,383.2,316.5,383.2z"/>
		<path class="st0_businessman-66" d="M447.4,383.2c-0.4,0-0.8-0.3-0.8-0.8V140.7c0-0.4,0.3-0.8,0.8-0.8s0.8,0.3,0.8,0.8v241.7&#xA;&#9;&#9;&#9;C448.2,382.8,447.8,383.2,447.4,383.2z"/>
		<path class="st0_businessman-66" d="M477.3,142.2H27.8c-0.4,0-0.8-0.3-0.8-0.8s0.3-0.8,0.8-0.8h449.5c0.4,0,0.8,0.3,0.8,0.8&#xA;&#9;&#9;&#9;S477.7,142.2,477.3,142.2z"/>
		<path class="st0_businessman-66" d="M477.3,126.7H27.8c-0.4,0-0.8-0.3-0.8-0.8s0.3-0.8,0.8-0.8h449.5c0.4,0,0.8,0.3,0.8,0.8&#xA;&#9;&#9;&#9;S477.7,126.7,477.3,126.7z"/>
		<line class="st1_businessman-66" x1="485.9" y1="383.7" x2="19.3" y2="383.7"/>
		<path class="st0_businessman-66" d="M485.9,384.5H19.3c-0.4,0-0.8-0.3-0.8-0.8s0.3-0.8,0.8-0.8h466.6c0.4,0,0.8,0.3,0.8,0.8&#xA;&#9;&#9;&#9;S486.3,384.5,485.9,384.5z"/>
	</g>
	<g id="clock_businessman-66">
		<circle class="st2_businessman-66" cx="124.2" cy="176.4" r="21.9"/>
		<path class="st0_businessman-66" d="M124.2,199c-12.5,0-22.6-10.1-22.6-22.6s10.1-22.6,22.6-22.6c12.5,0,22.6,10.1,22.6,22.6c0,0,0,0,0,0&#xA;&#9;&#9;&#9;C146.8,188.9,136.7,199,124.2,199z M124.2,155.3c-11.7,0-21.1,9.4-21.1,21.1c0,11.7,9.4,21.1,21.1,21.1s21.1-9.4,21.1-21.1&#xA;&#9;&#9;&#9;c0,0,0,0,0,0C145.3,164.7,135.9,155.3,124.2,155.3L124.2,155.3z"/>
		<polyline class="st2_businessman-66" points="112.5,168.3 124.2,179.7 124.2,160.1 &#9;&#9;"/>
		<path class="st0_businessman-66" d="M124.2,180.5c-0.2,0-0.4-0.1-0.5-0.2L112,168.9c-0.3-0.3-0.3-0.8,0-1.1c0.3-0.3,0.8-0.3,1.1,0l10.4,10.2&#xA;&#9;&#9;&#9;v-17.8c0-0.4,0.3-0.8,0.8-0.8s0.8,0.3,0.8,0.8v19.6c0,0.3-0.2,0.6-0.5,0.7C124.4,180.5,124.3,180.5,124.2,180.5z"/>
	</g>
</g>
<g id="office_chair_businessman-66">
	<path class="st2_businessman-66" d="M242.4,192.8l-35.8-0.1c-11.4,0-21.7,9-23,20.1l-12,107.5l77.2,0.1l12-107.5&#xA;&#9;&#9;C262.1,201.9,253.8,192.8,242.4,192.8z"/>
	<path class="st0_businessman-66" d="M248.9,321.2L248.9,321.2l-77.2-0.1c-0.2,0-0.4-0.1-0.6-0.2c-0.1-0.2-0.2-0.4-0.2-0.6l12-107.5&#xA;&#9;&#9;c1.2-11.5,11.9-20.8,23.6-20.8l0,0l35.8,0.1c5.6-0.1,10.9,2.2,14.7,6.3c3.5,4,5.2,9.4,4.5,14.7l-12,107.5&#xA;&#9;&#9;C249.5,320.9,249.2,321.2,248.9,321.2z M172.5,319.6l75.7,0.1l11.9-106.8c0.6-4.9-0.9-9.8-4.1-13.5c-3.5-3.8-8.4-5.9-13.6-5.8l0,0&#xA;&#9;&#9;l-35.8-0.1l0,0c-11,0-21,8.7-22.2,19.4L172.5,319.6z"/>
	<path class="st2_businessman-66" d="M232.5,192.8l-35.8-0.1c-11.4,0-21.7,9-22.9,20.1l-12,107.5l77.2,0.1L251,213&#xA;&#9;&#9;C252.2,201.9,244,192.8,232.5,192.8z"/>
	<path class="st0_businessman-66" d="M239,321.2L239,321.2l-77.2-0.1c-0.2,0-0.4-0.1-0.6-0.2c-0.1-0.2-0.2-0.4-0.2-0.6l12-107.5&#xA;&#9;&#9;c1.3-11.5,11.9-20.8,23.6-20.8l0,0l35.8,0.1c5.6-0.1,10.9,2.2,14.7,6.3c3.5,4,5.2,9.4,4.5,14.7l-12,107.5&#xA;&#9;&#9;C239.6,320.9,239.4,321.2,239,321.2z M162.6,319.6l75.7,0.1l11.9-106.8c0.6-4.9-0.9-9.8-4.1-13.5c-3.5-3.8-8.4-5.9-13.6-5.8l0,0&#xA;&#9;&#9;l-35.8-0.1l0,0c-11,0-21,8.7-22.2,19.4L162.6,319.6z"/>
	<line class="st1_businessman-66" x1="233.8" y1="217.1" x2="187.8" y2="217"/>
	<path class="st0_businessman-66" d="M233.8,217.9L233.8,217.9l-46-0.1c-0.4,0-0.8-0.3-0.8-0.8s0.3-0.8,0.8-0.8l0,0l46,0.1c0.4,0,0.8,0.3,0.8,0.8&#xA;&#9;&#9;C234.5,217.5,234.2,217.9,233.8,217.9C233.8,217.9,233.8,217.9,233.8,217.9z"/>
	<line class="st1_businessman-66" x1="231.4" y1="238" x2="185.5" y2="237.9"/>
	<path class="st0_businessman-66" d="M231.4,238.8L231.4,238.8l-46-0.1c-0.4,0-0.8-0.3-0.8-0.8s0.3-0.8,0.8-0.8l0,0l46,0.1c0.4,0,0.8,0.3,0.8,0.8&#xA;&#9;&#9;S231.9,238.8,231.4,238.8L231.4,238.8z"/>
	<line class="st1_businessman-66" x1="229.1" y1="258.9" x2="183.1" y2="258.9"/>
	<path class="st0_businessman-66" d="M229.1,259.7L229.1,259.7l-46-0.1c-0.4,0-0.8-0.3-0.8-0.8c0-0.4,0.3-0.7,0.8-0.7l0,0l46,0.1&#xA;&#9;&#9;c0.4,0,0.8,0.3,0.8,0.8S229.5,259.7,229.1,259.7z"/>
</g>
<g id="desk_businessman-66">
	<rect x="34.5" y="280.4" class="st2_businessman-66" width="328.9" height="121"/>
	<path class="st0_businessman-66" d="M363.4,402.1H34.5c-0.4,0-0.8-0.3-0.8-0.8v-121c0-0.4,0.3-0.7,0.8-0.8h328.9c0.4,0,0.8,0.3,0.8,0.8v121&#xA;&#9;&#9;C364.2,401.8,363.8,402.1,363.4,402.1C363.4,402.1,363.4,402.1,363.4,402.1z M35.3,400.6h327.4V281.1H35.3L35.3,400.6z"/>
	<rect x="29.7" y="270" class="st2_businessman-66" width="343.1" height="12.6"/>
	<path class="st0_businessman-66" d="M372.8,283.4H29.7c-0.4,0-0.7-0.3-0.8-0.8V270c0-0.4,0.3-0.8,0.8-0.8h343.1c0.4,0,0.8,0.3,0.8,0.8v12.6&#xA;&#9;&#9;C373.6,283.1,373.2,283.4,372.8,283.4z M30.4,281.9h341.6v-11.1H30.4L30.4,281.9z"/>
</g>
<g id="character_businessman-66">
	<polygon class="st3_businessman-66" points="297.1,256.1 305.9,427.6 331.1,425.2 336.9,300.3 351.9,426.8 378,426.9 374.4,254.4 &#9;"/>
	<path class="st3_businessman-66" d="M305.9,428.3c-0.2,0-0.4-0.1-0.5-0.2c-0.2-0.1-0.2-0.3-0.3-0.5l-8.8-171.4c0-0.2,0.1-0.4,0.2-0.6&#xA;&#9;&#9;c0.1-0.1,0.3-0.2,0.5-0.2l77.3-1.8c0.4,0,0.8,0.3,0.8,0.7c0,0,0,0,0,0l3.7,172.6c0,0.2-0.1,0.4-0.2,0.5c-0.1,0.1-0.3,0.2-0.5,0.2&#xA;&#9;&#9;l-26.1-0.2c-0.4,0-0.7-0.3-0.7-0.7l-14-117.5l-5.4,115.8c0,0.4-0.3,0.7-0.7,0.7l-25.1,2.4H305.9z M297.9,256.9l8.7,169.9l23.8-2.3&#xA;&#9;&#9;l5.8-124.3c0-0.4,0.3-0.7,0.7-0.7c0.4,0,0.7,0.3,0.8,0.7l15,125.8l24.7,0.2l-3.6-171.1L297.9,256.9z"/>
	<path class="st3_businessman-66" d="M378.5,323.2c0,0-0.8-9.3,0.1-10.1s21.5,0.2,23.2,0.4s1.2,9.9,1.2,9.9l-3.1,0.1c0,0,0.8-6.2-0.3-6.6&#xA;&#9;&#9;s-17.9-1-17.9-1l0.4,7.6L378.5,323.2z"/>
	<path class="st3_businessman-66" d="M400,324.2c-0.4,0-0.8-0.3-0.8-0.8c0,0,0-0.1,0-0.1c0.3-2.5,0.4-5.2,0.1-5.8c-1.4-0.2-10.6-0.7-16.8-1l0.3,6.8&#xA;&#9;&#9;c0,0.4-0.3,0.8-0.7,0.8c0,0-0.1,0-0.1,0l-3.6-0.2c-0.4,0-0.7-0.3-0.7-0.7c-0.6-6.4-0.4-10.1,0.4-10.8c0.3-0.3,0.8-0.7,11.8-0.4&#xA;&#9;&#9;c5.6,0.2,11.1,0.5,12,0.6c1.6,0.2,2.2,3.8,1.8,10.7c0,0.4-0.3,0.7-0.7,0.7L400,324.2L400,324.2z M381.8,315.1L381.8,315.1&#xA;&#9;&#9;c2.8,0.1,16.9,0.7,18.1,1.1c0.4,0.1,1.6,0.5,0.9,6.5h1.5c0.2-4.1-0.1-7.8-0.7-8.5c-2.2-0.3-20.2-1-22.5-0.5c-0.3,1-0.2,5.1,0.1,8.8&#xA;&#9;&#9;l2.1,0.1l-0.3-6.8c0-0.2,0.1-0.4,0.2-0.6C381.4,315.2,381.5,315.1,381.8,315.1L381.8,315.1z"/>
	<path class="st2_businessman-66" d="M309.7,259.8l47.9-0.2c0,0-1.7-83.5-3.9-85.6s-31,2.1-33.4,4.2S309.7,259.8,309.7,259.8z"/>
	<path class="st3_businessman-66" d="M309.7,260.5c-0.2,0-0.4-0.1-0.6-0.2c-0.1-0.2-0.2-0.4-0.2-0.6c1.9-18.7,8.4-80,10.8-82.1&#xA;&#9;&#9;c1.7-1.4,11.6-3.1,17.2-3.9c5.8-0.8,15.7-1.8,17.2-0.3c2.2,2.2,3.7,66.5,4.1,86.1c0,0.2-0.1,0.4-0.2,0.5c-0.1,0.1-0.3,0.2-0.5,0.2&#xA;&#9;&#9;L309.7,260.5L309.7,260.5z M350,174.1c-7.8,0-27.2,2.8-29.3,4.6c-1.7,2.4-7,49-10.2,80.3l46.3-0.2c-0.7-32.6-2.2-81.2-3.6-84.4&#xA;&#9;&#9;C352.1,174.1,351,174,350,174.1z"/>
	<path class="st2_businessman-66" d="M384.7,299.7c0,0-3.8,5.4-4.7,8.5c-0.6,1.6-0.7,3.3-0.2,4.9l4.8-0.4c0,0-1.4,9.3,0.1,9.4s3.8,1.4,4.1-5.8&#xA;&#9;&#9;c0,0,0.5,2.8,3,1.9c1.4-0.4,2.6-1.4,3.3-2.7c0,0,1.9,3.7,4.4,0s-0.3-14.8-0.3-14.8v-5.2l-14.7-0.7L384.7,299.7z"/>
	<path class="st3_businessman-66" d="M386.1,322.9c-0.3,0-0.7,0-1-0.1l-0.5-0.1c-0.3,0-0.6-0.2-0.8-0.4c-1-1.2-0.5-6.1-0.1-8.9l-3.9,0.3&#xA;&#9;&#9;c-0.3,0-0.6-0.2-0.8-0.5c-0.5-1.8-0.4-3.7,0.2-5.4c0.9-2.8,4-7.4,4.7-8.5l-0.2-4.7c0-0.4,0.3-0.8,0.7-0.8c0,0,0.1,0,0.1,0l14.7,0.7&#xA;&#9;&#9;c0.4,0,0.7,0.4,0.7,0.8v5.1c0.3,1.2,2.7,11.5,0.2,15.3c-0.9,1.4-1.9,2-3,2c-0.8-0.1-1.5-0.5-2-1c-0.8,0.9-1.9,1.7-3,2.1&#xA;&#9;&#9;c-0.8,0.3-1.7,0.3-2.5-0.1l-0.2-0.1c-0.3,1.9-0.8,3.2-1.6,3.8C387.2,322.8,386.7,323,386.1,322.9z M384.9,321.3l0.4,0.1&#xA;&#9;&#9;c0.7,0.1,1.1,0.1,1.4-0.1s1.1-1.6,1.3-5c0-0.4,0.3-0.7,0.7-0.7c0.4,0,0.7,0.2,0.8,0.6c0.1,0.5,0.4,1,0.8,1.3c0.4,0.2,0.8,0.2,1.2,0&#xA;&#9;&#9;c1.2-0.4,2.2-1.2,2.8-2.3c0.1-0.3,0.4-0.4,0.7-0.4c0.3,0,0.6,0.1,0.7,0.4c0.2,0.3,0.8,1.2,1.4,1.2s1.3-0.7,1.7-1.3&#xA;&#9;&#9;c1.9-2.8,0.4-11.2-0.4-14.2c0-0.1,0-0.1,0-0.2v-4.5l-13.2-0.6l0.2,4.1c0,0.2,0,0.3-0.1,0.5c0,0-3.7,5.4-4.6,8.2&#xA;&#9;&#9;c-0.4,1.2-0.6,2.6-0.4,3.9l4.2-0.4c0.2,0,0.4,0.1,0.6,0.2c0.2,0.2,0.2,0.4,0.2,0.6C384.8,316.2,384.5,320.4,384.9,321.3z"/>
	<path class="st4_businessman-66 targetColor" d="M347.3,169.8c-0.3,0.8-0.8,120.3-0.8,120.3l30.8-2.1l0.7,7l24.3,2c0,0,1.4-51.2-0.7-71.1s-13-40.1-19.6-45.1&#xA;&#9;&#9;C369.3,171.2,347.3,169.8,347.3,169.8z" style="fill: rgb(181, 5, 16);"/>
	<path class="st4_businessman-66 targetColor" d="M325.5,171.5l0.5,120.1l-34.3-1.5l1.7-57.4c0,0-33.5,27-41.8,2c-6.2-18.5,41.6-68.1,41.6-68.1l13.8,12.3&#xA;&#9;&#9;C307,178.9,318.9,169.7,325.5,171.5z" style="fill: rgb(181, 5, 16);"/>
	<polygon class="st0_businessman-66" points="332.4,188.4 334.3,192.2 329.7,243.8 337,253.6 344.8,243.1 337.6,191.6 340.1,187.8 336.5,184.9 &#9;"/>
	<path class="st2_businessman-66" d="M306.4,179.9c1.2-2.1,2.6-4,4.3-5.8c1.8-1.7,3.9-3.1,5.5-5c1.1-1.3,1.9-2.7,2.5-4.3c2.3-5.2,3.1-11,2.3-16.6&#xA;&#9;&#9;c-0.3-2.6-2.5-11.4-6.4-6.6c-0.8,1-1.4,2.2-1.7,3.4c0.3-1.4,0.4-2.8,0.3-4.2c0-0.3-0.1-0.7-0.4-0.8s-0.6,0.1-0.9,0.3&#xA;&#9;&#9;c-2,2-3.3,4.5-3.7,7.2c0.7-1.9,1-4,1.1-6c0-2.4-2.7,1.6-3,2.1c-0.9,1.7-1.5,3.4-1.9,5.3c-1.9,7.6-2.7,15.3-7,22.1"/>
	<path class="st3_businessman-66" d="M306.4,180.6c-0.1,0-0.3,0-0.4-0.1c-0.3-0.2-0.4-0.7-0.2-1c1.2-2.2,2.7-4.1,4.4-5.9c0.7-0.7,1.5-1.3,2.3-1.9&#xA;&#9;&#9;c1.2-0.9,2.2-1.9,3.2-3c1-1.2,1.8-2.6,2.4-4.1c2.2-5.1,3-10.7,2.3-16.2c-0.4-2.7-1.7-6.9-3.2-7.3c-0.6-0.2-1.4,0.5-1.8,1.1&#xA;&#9;&#9;c-0.7,0.9-1.3,2-1.6,3.1c-0.1,0.4-0.5,0.6-0.9,0.5c-0.3-0.1-0.6-0.5-0.5-0.8c0.2-1.3,0.3-2.6,0.3-3.9c-1.2,1.2-2.1,2.6-2.7,4.2&#xA;&#9;&#9;c-0.2,0.9-0.4,1.8-0.7,2.7c-0.1,0.4-0.5,0.6-0.9,0.5c-0.4-0.1-0.6-0.5-0.5-0.8c0.1-0.9,0.4-1.9,0.7-2.7c0.2-0.9,0.3-1.8,0.3-2.8&#xA;&#9;&#9;c-0.6,0.6-1.1,1.3-1.6,2.1c-0.9,1.6-1.5,3.3-1.9,5.1c-0.4,1.6-0.8,3.3-1.1,4.9c-1.3,5.9-2.6,12-6,17.4c-0.2,0.3-0.7,0.4-1,0.2&#xA;&#9;&#9;c-0.3-0.2-0.4-0.7-0.2-1c3.3-5.2,4.5-10.9,5.8-16.9c0.4-1.6,0.7-3.3,1.1-4.9c0.4-1.9,1.1-3.7,2-5.5c0,0,2.1-3.6,3.6-3.2&#xA;&#9;&#9;c0.4,0.1,0.8,0.4,0.8,1.3c0.4-0.6,0.9-1.1,1.4-1.6c0.4-0.5,1.1-0.7,1.7-0.5c0.5,0.3,0.9,0.8,0.8,1.4c0,0.1,0,0.3,0,0.4l0.1-0.1&#xA;&#9;&#9;c1.1-1.4,2.3-1.9,3.4-1.6c3.2,0.9,4.3,8.5,4.3,8.5c0.8,5.8,0,11.7-2.4,17c-0.7,1.6-1.6,3.1-2.7,4.5c-1,1.2-2.2,2.2-3.4,3.2&#xA;&#9;&#9;c-0.7,0.6-1.5,1.2-2.2,1.9c-1.6,1.7-3,3.6-4.1,5.6C306.9,180.5,306.7,180.6,306.4,180.6z"/>
	<path class="st3_businessman-66" d="M321,153c-0.2,0.3-15.9,19.7-15.9,19.7l-4.2-15.5l16-17.8L321,153z"/>
	<path class="st3_businessman-66" d="M305.2,173.4H305c-0.3-0.1-0.5-0.3-0.6-0.5l-4.2-15.5c-0.1-0.2,0-0.5,0.2-0.7l16-17.7c0.2-0.2,0.5-0.3,0.7-0.2&#xA;&#9;&#9;c0.3,0.1,0.5,0.3,0.6,0.5l4.2,13.5c0.1,0.2,0,0.5-0.1,0.7c-0.2,0.3-15.2,18.9-15.9,19.7C305.6,173.4,305.4,173.5,305.2,173.4z&#xA;&#9;&#9; M301.8,157.4l3.8,13.7l14.7-18.2l-3.7-11.9L301.8,157.4z"/>
	<path class="st2_businessman-66" d="M321.4,114.3c-1.7,1.4-3.4,3.1-5.1,4.2c-3.1,2.1-6.7,3.4-10.4,3.8c-1,0.1,0.8,8.4,1.1,9.2&#xA;&#9;&#9;c1.1,3.1,2.7,5.9,5,8.3c2,2.1,4.2,4,6.4,5.9c2.8,2.4,7.2,2.7,10.7,3.2c3.1,0.4,6.4,1.2,9.5,1.4s6.8,0.4,9.6-0.8&#xA;&#9;&#9;c3.6-1.6,5.8-6.3,7-9.8c1.5-4.4,2-9.4,0.3-13.9c-0.6-1.7-1.6-3.2-3-4.4c-1.7-1.4-3.4-1.2-5.4-1.2c0.2-2.5-0.6-3.8-2.8-5.4&#xA;&#9;&#9;c-5-3.8-13.7-4.2-19.6-2.2C323.5,112.8,322.4,113.4,321.4,114.3z"/>
	<path class="st3_businessman-66" d="M342.2,151c-1,0-2.1,0-3-0.1h-0.7c-2-0.1-4-0.4-6-0.8c-1.2-0.2-2.4-0.4-3.5-0.6l-0.8-0.1&#xA;&#9;&#9;c-3.3-0.4-7.5-0.9-10.3-3.2c-2.3-1.8-4.5-3.8-6.5-5.9c-2.3-2.5-4-5.4-5.1-8.5c0-0.1-2.1-8.3-1.1-9.8c0.2-0.2,0.4-0.4,0.7-0.4&#xA;&#9;&#9;c3.6-0.4,7.1-1.6,10.1-3.7c1.1-0.7,2.1-1.6,3-2.4c0.6-0.6,1.3-1.1,2-1.7c1.1-0.9,2.3-1.6,3.6-2.1c5.8-1.9,14.8-1.8,20.2,2.3&#xA;&#9;&#9;c1.9,1.4,3,2.8,3.1,5.3c1.8-0.2,3.6,0.3,5.1,1.4c1.5,1.2,2.6,2.9,3.2,4.7c2,5.3,1,10.8-0.3,14.4c-1.9,5.5-4.4,8.9-7.4,10.2&#xA;&#9;&#9;C346.5,150.8,344.4,151.1,342.2,151z M306.3,123c-0.1,1.5,1,7.4,1.3,8.2c1,3,2.7,5.7,4.8,8c2,2.1,4.1,4,6.4,5.8&#xA;&#9;&#9;c2.5,2,6.2,2.5,9.5,2.9l0.8,0.1c1.2,0.1,2.4,0.4,3.6,0.6c1.9,0.4,3.9,0.6,5.8,0.8h0.7c2.7,0.1,6.1,0.3,8.6-0.8&#xA;&#9;&#9;c2.6-1.1,4.8-4.3,6.6-9.3c1.2-3.4,2.2-8.5,0.3-13.4c-0.5-1.6-1.5-3-2.8-4.1c-1.4-1.1-2.7-1.1-4.4-1.1H347c-0.2,0-0.4-0.1-0.5-0.2&#xA;&#9;&#9;c-0.1-0.1-0.2-0.3-0.2-0.6c0.1-2.1-0.4-3.3-2.5-4.8c-4.8-3.7-13.4-4-18.9-2.1c-1.1,0.4-2.2,1.1-3.1,1.9l0,0&#xA;&#9;&#9;c-0.6,0.5-1.3,1.1-1.9,1.6c-1,0.9-2.1,1.8-3.2,2.6C313.6,121.2,310.1,122.5,306.3,123z M321.3,114.3L321.3,114.3z"/>
	<path class="st2_businessman-66" d="M325.4,164.7l-0.3,13.7c0,0,6.3,6.5,15,3.9s9.7-8.7,9.7-8.7l-1.3-24.8c0,0-6.7-3.2-5.4-17.4&#xA;&#9;&#9;c0,0-13.4,4.8-26.6,3.8c0,0,0.6,16,2,22.8S325.4,164.7,325.4,164.7z"/>
	<path class="st3_businessman-66" d="M335.9,183.7c-4.3-0.1-8.3-1.8-11.4-4.8c-0.1-0.1-0.2-0.3-0.2-0.5l0.3-13c-1.7-0.3-5.8-1.5-6.9-7.2&#xA;&#9;&#9;c-1.4-6.8-1.9-22.3-2-22.9c0-0.2,0.1-0.4,0.2-0.6c0.2-0.1,0.4-0.2,0.6-0.2c12.9,1,26.1-3.7,26.2-3.7c0.2-0.1,0.5-0.1,0.7,0.1&#xA;&#9;&#9;c0.2,0.2,0.3,0.4,0.3,0.7c-1.2,13.5,5,16.7,5,16.7c0.2,0.1,0.4,0.4,0.4,0.6l1.3,24.8c0,0.1,0,0.1,0,0.2c0,0.3-1.2,6.6-10.2,9.3&#xA;&#9;&#9;C338.8,183.5,337.3,183.7,335.9,183.7z M325.8,178.1c1.1,1.1,6.7,5.7,14,3.5c7.7-2.2,9-7.4,9.2-8l-1.2-24.3c-1.5-1-6.3-5-5.5-16.8&#xA;&#9;&#9;c-3.4,1.1-14.2,4.2-24.9,3.5c0.1,3.4,0.7,16.1,1.9,21.9c1.2,6.1,6.2,6.1,6.2,6.1c0.4,0,0.8,0.3,0.8,0.7c0,0,0,0,0,0L325.8,178.1z"/>
	<path class="st2_businessman-66" d="M343.3,148.7c0.2-1.2,0.9-2.3,1.8-3.2c0.9-0.7,1.9-1.3,3-1.7c0.6-0.3,1.2-0.4,1.8-0.4c0.4,0,0.9,0.2,1.3,0.4&#xA;&#9;&#9;c1,0.4,1.8,1.2,2.2,2.1c0.3,0.8,0.4,1.7,0.2,2.5c-0.1,0.9-0.2,1.8-0.5,2.7c-1.4,3.6-5.4,5.4-9,4.1c0,0,0,0,0,0"/>
	<path class="st3_businessman-66" d="M346.6,156.4c-1,0-1.9-0.2-2.8-0.5c-0.4-0.1-0.6-0.6-0.4-1s0.6-0.6,1-0.4c3.2,1.2,6.8-0.3,8.1-3.5&#xA;&#9;&#9;c0,0,0-0.1,0-0.1c0.3-0.8,0.4-1.7,0.5-2.5c0.1-0.7,0.1-1.5-0.2-2.1c-0.4-0.8-1.1-1.4-1.9-1.7c-0.3-0.2-0.6-0.3-1-0.3&#xA;&#9;&#9;c-0.5,0-1,0.1-1.5,0.4c-1,0.4-2,0.9-2.8,1.6c-0.8,0.7-1.4,1.7-1.6,2.8c-0.1,0.4-0.5,0.7-0.9,0.6c-0.4-0.1-0.7-0.5-0.6-0.9&#xA;&#9;&#9;c0.3-1.4,1-2.6,2-3.6c1-0.8,2.1-1.4,3.2-1.8c0.7-0.3,1.4-0.5,2.2-0.5c0.5,0.1,1.1,0.2,1.6,0.5c1.1,0.5,2.1,1.4,2.6,2.5&#xA;&#9;&#9;c0.3,0.9,0.4,1.9,0.3,2.9c-0.1,1-0.3,2-0.6,2.9C352.6,154.4,349.7,156.4,346.6,156.4L346.6,156.4z"/>
	<path class="st3_businessman-66" d="M325.5,171.5c3.3,0.2,6.5-1,8.9-3.4c3.7-3.9,3.3-6.1,3.3-6.1s-6.1,3.7-11.9,2.8L325.5,171.5z"/>
	<path class="st3_businessman-66" d="M326.2,172.3c-0.3,0-0.5,0-0.8,0c-0.4,0-0.7-0.4-0.7-0.8l0.2-6.6c0-0.2,0.1-0.4,0.3-0.6&#xA;&#9;&#9;c0.2-0.1,0.4-0.2,0.6-0.2c5.5,0.8,11.4-2.7,11.4-2.7c0.2-0.1,0.5-0.2,0.7-0.1c0.2,0.1,0.4,0.3,0.4,0.5c0.1,0.3,0.4,2.6-3.5,6.7&#xA;&#9;&#9;C332.6,171,329.5,172.3,326.2,172.3z M326.5,165.8l-0.2,5c2.8,0,5.6-1.1,7.6-3.1c1.2-1.2,2.2-2.6,2.8-4.2&#xA;&#9;&#9;C333.5,165.1,330,165.9,326.5,165.8z"/>
	<path class="st2_businessman-66" d="M329.1,145.1c0,0-4.5,6.9-3.4,8.1s4.2,0.4,4.2,0.4"/>
	<path class="st3_businessman-66" d="M327.8,154.6c-1,0.1-1.9-0.2-2.6-0.9c-1.2-1.3,1.1-5.7,3.4-9c0.2-0.3,0.7-0.4,1-0.2s0.4,0.7,0.2,1l0,0&#xA;&#9;&#9;c-2.1,3.2-3.7,6.6-3.5,7.3c0.5,0.5,2.3,0.4,3.4,0.1c0.4-0.1,0.8,0.1,0.9,0.5c0.1,0.4-0.1,0.8-0.5,0.9c0,0,0,0,0,0&#xA;&#9;&#9;C329.3,154.5,328.5,154.6,327.8,154.6z"/>
	<ellipse transform="matrix(0.2012 -0.9795 0.9795 0.2012 127.3149 445.712)" class="st3_businessman-66" cx="337" cy="144.8" rx="1.6" ry="1.1"/>
	<ellipse transform="matrix(0.2012 -0.9795 0.9795 0.2012 117.4968 434.1288)" class="st3_businessman-66" cx="324.9" cy="145" rx="1.6" ry="1.1"/>
	<path class="st3_businessman-66" d="M332.8,155.2l-6.5,1.5c0,0,0.2,5.2,3.4,4.8C332.1,161.2,333.3,156,332.8,155.2z"/>
	<path class="st3_businessman-66" d="M329.3,162.3c-0.7,0-1.4-0.2-1.9-0.7c-1.7-1.4-1.9-4.4-1.9-4.8c0-0.4,0.2-0.7,0.6-0.8l6.5-1.5&#xA;&#9;&#9;c0.3-0.1,0.6,0.1,0.8,0.3c0.6,0.9,0,3.3-0.6,4.6c-0.8,1.7-1.8,2.7-3,2.8L329.3,162.3z M327,157.4c0.1,1.1,0.5,2.2,1.3,3.1&#xA;&#9;&#9;c0.3,0.3,0.8,0.4,1.2,0.3c0.6-0.2,1.2-0.6,1.5-1.2c0.6-1,1-2.2,1.1-3.4L327,157.4z"/>
	<path class="st2_businessman-66" d="M346.7,121.9c-0.8,1.6-1.4,3.3-2,5"/>
	<path class="st3_businessman-66" d="M344.6,127.6c-0.1,0-0.2,0-0.2,0c-0.4-0.1-0.6-0.5-0.5-0.9c0,0,0,0,0-0.1c0.6-1.7,1.3-3.4,2.1-5.1&#xA;&#9;&#9;c0.2-0.4,0.6-0.5,1-0.4c0,0,0,0,0,0c0.4,0.2,0.5,0.6,0.4,1c-0.8,1.6-1.4,3.2-2,4.9C345.2,127.4,345,127.6,344.6,127.6z"/>
	<path class="st3_businessman-66" d="M284.3,222.6c-0.4,0-0.7-0.3-0.8-0.7c0-0.2,0-0.3,0.1-0.4l25.7-37.3c-2.5-2.4-14.3-13.7-16.8-17.1&#xA;&#9;&#9;c-0.2-0.3-0.2-0.8,0.1-1c0,0,0,0,0,0c0.3-0.2,0.8-0.2,1,0.2c2.7,3.6,17,17.2,17.1,17.4c0.3,0.3,0.3,0.7,0.1,1l-26.1,37.9&#xA;&#9;&#9;C284.8,222.5,284.5,222.6,284.3,222.6z"/>
	<path class="st2_businessman-66" d="M309.3,171.4c0,0,2.2-5.7,3.7-10.6s1.5-6.9,2.8-5.9s1.7,4.9,0,10.4"/>
	<path class="st3_businessman-66" d="M309.3,172.1c-0.1,0-0.2,0-0.3,0c-0.4-0.1-0.6-0.6-0.4-1c0,0,0,0,0,0c0-0.1,2.2-5.8,3.7-10.5&#xA;&#9;&#9;c0.4-1.3,0.7-2.3,0.9-3.2c0.6-2.2,0.9-3.1,1.7-3.4c0.5-0.1,1,0,1.3,0.3c1.7,1.3,1.9,6,0.3,11.2c-0.1,0.4-0.5,0.6-0.9,0.5&#xA;&#9;&#9;s-0.6-0.5-0.5-0.9c1.6-5.4,1-8.8,0.3-9.5c-0.3,0.7-0.5,1.5-0.7,2.3c-0.2,0.9-0.5,2-0.9,3.2c-1.5,4.8-3.7,10.6-3.7,10.6&#xA;&#9;&#9;C309.9,172,309.6,172.1,309.3,172.1z"/>
	<polygon class="st2_businessman-66" points="368.1,323.3 358.8,323.7 359.5,370.4 369.2,371.9 &#9;"/>
	<path class="st3_businessman-66" d="M369.2,372.6h-0.1l-9.8-1.5c-0.4-0.1-0.6-0.4-0.6-0.7l-0.7-46.6c0-0.4,0.3-0.7,0.7-0.8l9.2-0.5&#xA;&#9;&#9;c0.2,0,0.4,0.1,0.5,0.2c0.1,0.1,0.2,0.3,0.2,0.5l1.2,48.6C370,372.3,369.7,372.6,369.2,372.6C369.3,372.6,369.3,372.6,369.2,372.6&#xA;&#9;&#9;L369.2,372.6z M360.2,369.7l8.2,1.3l-1.1-46.9l-7.7,0.4L360.2,369.7z"/>
	<path class="st2_businessman-66" d="M368.1,323.3c-0.2,0.6,1.2,48.6,1.2,48.6l44.2-1.3l0.4-46.8L368.1,323.3z"/>
	<path class="st3_businessman-66" d="M369.2,372.6c-0.2,0-0.4-0.1-0.5-0.2c-0.1-0.1-0.2-0.3-0.2-0.5c-1.4-48.1-1.2-48.7-1.1-48.9&#xA;&#9;&#9;c0.1-0.3,0.4-0.5,0.7-0.5l0,0l45.8,0.5c0.4,0,0.7,0.3,0.7,0.8c0,0,0,0,0,0l-0.4,46.8c0,0.4-0.3,0.7-0.7,0.7L369.2,372.6&#xA;&#9;&#9;L369.2,372.6z M368.8,324c0,4.4,0.7,29.6,1.2,47.1l42.7-1.3l0.4-45.3L368.8,324z"/>
	<path class="st3_businessman-66" d="M377.6,340.9c-0.3,0-0.5-0.1-0.7-0.4l-9.5-16.8c-0.2-0.4-0.1-0.8,0.3-1c0.4-0.2,0.8-0.1,1,0.3l9.3,16.4l28-0.2&#xA;&#9;&#9;l7.2-15.7c0.2-0.4,0.6-0.5,1-0.4c0,0,0,0,0,0c0.4,0.2,0.5,0.6,0.4,1c0,0,0,0,0,0l-7.4,16.2c-0.1,0.3-0.4,0.4-0.7,0.4L377.6,340.9&#xA;&#9;&#9;L377.6,340.9z"/>
	
		<rect x="391.4" y="336.4" transform="matrix(0.9993 -3.664371e-02 3.664371e-02 0.9993 -12.2209 14.6498)" class="st0_businessman-66" width="4.3" height="8.5"/>
	<path class="st2_businessman-66" d="M331.3,426.2L331,438l-9.5,1.3l0.3-4c-1.3,2.3-3.5,3.9-6.1,4.5c-4.3,1-15,3.3-18.5,2s8.7-14.1,8.7-14.1"/>
	<path class="st3_businessman-66" d="M300.3,442.8c-1.2,0-2.3-0.1-3.4-0.5c-0.6-0.2-1-0.6-1.1-1.2c-0.1-0.6-0.3-3.9,9.5-14.1c0.3-0.3,0.8-0.3,1.1,0&#xA;&#9;&#9;c0.3,0.3,0.3,0.8,0,1.1c-4,4.2-9.6,11-9.2,12.7c0,0.1,0,0.1,0.1,0.1c2.3,0.9,8.7,0.1,18.1-2c2.3-0.5,4.4-2,5.6-4.1&#xA;&#9;&#9;c0.2-0.4,0.6-0.5,1-0.3c0.3,0.1,0.4,0.4,0.4,0.7l-0.2,3.1l8-1.1l0.3-11.1c0-0.4,0.3-0.8,0.8-0.8s0.8,0.3,0.8,0.8l-0.4,11.8&#xA;&#9;&#9;c0,0.4-0.3,0.7-0.6,0.7l-9.5,1.3c-0.2,0-0.4,0-0.6-0.2c-0.2-0.2-0.3-0.4-0.2-0.6l0.1-1.5c-1.4,1.4-3.1,2.3-5,2.8&#xA;&#9;&#9;C308.9,442,303.7,442.8,300.3,442.8z"/>
	<path class="st2_businessman-66" d="M351.8,427.3l0.6,10.6l6.8,1.1l0.2-3.4c1.4,2,3.4,3.4,5.7,4.2c3.6,1.1,21.1,5,22.1,1.5s-7.6-9.1-9.6-14.4"/>
	<path class="st3_businessman-66" d="M382.7,443.5c-1.9,0-3.8-0.2-5.7-0.5c-4.1-0.6-8.1-1.4-12.1-2.5c-1.8-0.6-3.5-1.7-4.9-3.1l-0.1,1.6&#xA;&#9;&#9;c0,0.2-0.1,0.4-0.3,0.5c-0.2,0.1-0.4,0.2-0.6,0.2l-6.8-1.1c-0.3-0.1-0.6-0.3-0.6-0.7l-0.6-10.6c0-0.4,0.3-0.8,0.7-0.8&#xA;&#9;&#9;c0.4,0,0.8,0.3,0.8,0.7c0,0,0,0,0,0l0.6,10l5.4,0.9l0.2-2.6c0-0.3,0.2-0.6,0.5-0.7c0.3-0.1,0.6,0,0.8,0.3c1.3,1.8,3.2,3.2,5.3,3.9&#xA;&#9;&#9;c3.9,1.1,7.9,1.9,11.9,2.5c8.6,1.2,9.3-0.3,9.3-0.5c0.5-1.5-1.9-4.1-4.2-6.6s-4.5-4.8-5.4-7.3c-0.2-0.4,0-0.8,0.4-1s0.8,0,1,0.4&#xA;&#9;&#9;c0,0,0,0.1,0,0.1c0.8,2.2,3,4.5,5.1,6.8c2.8,3.1,5.3,5.7,4.6,8.1C387.7,442.4,386.7,443.5,382.7,443.5z"/>
	<path class="st3_businessman-66" d="M377.4,288.8c-0.4,0-0.7-0.3-0.8-0.7l-0.6-92.3c0-0.4,0.3-0.7,0.8-0.8l0,0c0.4,0,0.7,0.3,0.7,0.7c0,0,0,0,0,0&#xA;&#9;&#9;l0.6,92.3C378.1,288.4,377.8,288.8,377.4,288.8C377.4,288.8,377.4,288.8,377.4,288.8L377.4,288.8z"/>
	<path class="st3_businessman-66" d="M322.6,239.5c-0.3,0-0.6-0.2-0.7-0.4c-0.4-1-10.4-23.2-10.8-24.5c-0.1-0.4-0.5-1.6,7.9-11.3&#xA;&#9;&#9;c-2.4-1.7-4.8-3.3-7.4-4.8c-0.3-0.1-0.5-0.3-0.6-0.6c-0.1-0.4-0.5-1.7,10.1-15.1c0.3-0.3,0.7-0.4,1.1-0.1s0.4,0.7,0.1,1.1&#xA;&#9;&#9;c-4.4,5.5-9,11.8-9.8,13.6c1.9,1,6.9,4.5,8,5.2c0.3,0.2,0.4,0.7,0.2,1c0,0,0,0-0.1,0.1c-3.7,4.2-7.8,9.4-8.1,10.5&#xA;&#9;&#9;c0.6,1.7,7.9,18,10.7,24.3c0.2,0.4,0,0.8-0.4,1c0,0,0,0,0,0C322.8,239.5,322.7,239.5,322.6,239.5z"/>
	<path class="st3_businessman-66" d="M352.8,230.4c-0.1,0-0.2,0-0.3-0.1c-0.4-0.2-0.5-0.6-0.4-1l8.5-18.1l-7.5-7.5c-0.1-0.2-0.2-0.4-0.2-0.6&#xA;&#9;&#9;c0-0.2,0.1-0.4,0.3-0.5l8.2-6.6l-9.6-14.3c-0.2-0.3-0.1-0.8,0.2-1c0.3-0.2,0.8-0.1,1,0.2l9.9,14.9c0.2,0.3,0.2,0.8-0.1,1l-8,6.5&#xA;&#9;&#9;l7.3,7.3c0.2,0.2,0.3,0.6,0.1,0.9l-8.7,18.6C353.3,230.3,353.1,230.4,352.8,230.4z"/>
	<path class="st3_businessman-66" d="M299.4,277.6c-0.3,0-0.5-0.1-0.6-0.4c-0.2-0.3-0.1-0.8,0.3-1l13.6-8.1c0.3-0.2,0.8-0.1,1,0.3&#xA;&#9;&#9;c0.2,0.4,0.1,0.8-0.3,1l-13.6,8.1C299.6,277.6,299.5,277.6,299.4,277.6z"/>
	<path class="st3_businessman-66" d="M367.3,281.3c-0.2,0-0.4-0.1-0.5-0.2l-10.8-9.2c-0.3-0.3-0.3-0.8-0.1-1.1s0.8-0.3,1.1-0.1l10.7,9.2&#xA;&#9;&#9;c0.3,0.3,0.4,0.7,0.1,1.1C367.7,281.2,367.5,281.3,367.3,281.3L367.3,281.3z"/>
	<path class="st2_businessman-66" d="M336.9,301c-0.4,0-0.7-0.3-0.7-0.6c-0.8-4.4-2-34-2-35.2c0-0.4,0.3-0.8,0.7-0.8c0.4,0,0.8,0.3,0.8,0.7&#xA;&#9;&#9;c0,0,0,0,0,0c0,0.3,1.3,30.7,2,35c0.1,0.4-0.2,0.8-0.6,0.9c0,0,0,0,0,0L336.9,301z"/>
	<path class="st3_businessman-66" d="M292.4,262L292.4,262c-0.4,0-0.7-0.4-0.7-0.8l1-38.4c0-0.4,0.3-0.7,0.7-0.7c0,0,0,0,0,0l0,0&#xA;&#9;&#9;c0.4,0,0.7,0.3,0.7,0.8c0,0,0,0,0,0l-1,38.4C293.2,261.7,292.8,262,292.4,262z"/>
</g>
<g id="plant_businessman-66">
	<path class="st2_businessman-66" d="M461.9,346.7c3.2-2.8,6.7-5.2,10.6-6.9c0.3,11.3-4.3,21.8-8.5,28.9h-13.8"/>
	<path class="st3_businessman-66" d="M464,369.5h-13.9c-0.4,0-0.8-0.3-0.8-0.8s0.3-0.8,0.8-0.8h13.4c3.8-6.5,8.2-16.3,8.2-27&#xA;&#9;&#9;c-3.4,1.7-6.5,3.8-9.4,6.3c-0.3,0.3-0.8,0.2-1.1-0.1s-0.2-0.8,0.1-1.1c3.2-2.9,6.9-5.3,10.8-7c0.2-0.1,0.5-0.1,0.7,0.1&#xA;&#9;&#9;c0.2,0.1,0.3,0.4,0.3,0.6c0.3,11.7-4.5,22.4-8.6,29.3C464.5,369.3,464.3,369.5,464,369.5z"/>
	<path class="st2_businessman-66" d="M442.1,349.8c3.4-17.7,17.3-28.9,17.3-28.9c2.6,8.3,3.4,17.1,2.5,25.8c-0.7,7.5-2.3,14.9-4.8,22h-14.9"/>
	<path class="st3_businessman-66" d="M457.1,369.5h-14.9c-0.4,0-0.8-0.3-0.8-0.8s0.3-0.8,0.8-0.8h14.3c2.3-6.9,3.9-14.1,4.6-21.3&#xA;&#9;&#9;c0.9-8.2,0.1-16.5-2.1-24.5c-3,2.7-13.4,13-16.2,27.7c-0.1,0.4-0.5,0.7-0.9,0.6s-0.7-0.5-0.6-0.9l0,0c3.4-17.8,17.4-29.2,17.6-29.3&#xA;&#9;&#9;c0.3-0.3,0.8-0.2,1.1,0.1c0.1,0.1,0.1,0.1,0.1,0.2c2.6,8.4,3.5,17.3,2.6,26.1c-0.7,7.6-2.3,15-4.8,22.2&#xA;&#9;&#9;C457.7,369.3,457.4,369.5,457.1,369.5z"/>
	<path class="st2_businessman-66" d="M434.7,368.7h13.2c0.1-3.9-0.8-9.8-5-17.5l-0.8-1.5c-7.6-12.9-14.6-12.8-14.6-12.8&#xA;&#9;&#9;C424.5,350.6,430.7,362.7,434.7,368.7z"/>
	<path class="st3_businessman-66" d="M447.9,369.5h-13.2c-0.3,0-0.5-0.1-0.6-0.3c-4-6.1-10.4-18.4-7.4-32.3c0.1-0.3,0.4-0.6,0.7-0.6&#xA;&#9;&#9;c0.3,0,7.5,0,15.3,13.1l0.9,1.5c4.4,8,5.2,14.1,5.1,17.9C448.6,369.2,448.3,369.5,447.9,369.5z M435.1,368h12&#xA;&#9;&#9;c0-3.6-0.9-9.1-4.9-16.4l-0.8-1.5c-6-10.2-11.6-12-13.4-12.3C425.5,350.7,431.3,362.1,435.1,368z"/>
	<polygon class="st3_businessman-66" points="437.1,389.6 463,389.6 467.1,368.7 433,368.7 &#9;"/>
</g>
<g id="laptop_businessman-66">
	<path class="st3_businessman-66" d="M189.6,270.3v-4.6h-36.2L143,227.9c-0.5-2-2.3-3.3-4.4-3.3H87.7c-2.5,0-4.6,2-4.6,4.5c0,0.5,0.1,1,0.2,1.5&#xA;&#9;&#9;L96.3,270L189.6,270.3z"/>
	<path class="st2_businessman-66" d="M146.7,264.8H95c-0.4,0-0.8-0.3-0.8-0.8s0.3-0.8,0.8-0.8h51.8c0.4,0,0.8,0.3,0.8,0.8S147.2,264.8,146.7,264.8&#xA;&#9;&#9;L146.7,264.8z"/>
</g>
</svg>